<?xml version="1.0" encoding="UTF-8"?>
<svg xmlns="http://www.w3.org/2000/svg" xmlns:xlink="http://www.w3.org/1999/xlink" viewBox="0 0 128 128" version="1.1">
  <g id="surface1">
    <path style="fill:#4a90e2;fill-opacity:1;" d="M 64 15.359375 L 16.332031 32.359375 L 23.601562 95.386719 L 64 117.761719 L 104.398438 95.386719 L 111.667969 32.359375 Z"/>
    <path style="fill:#ffffff;fill-opacity:1;" d="M 44 38 
      L 44 90 
      L 68 90 
      C 78 90 84 87 89 82 
      C 94 77 96 71 96 64
      C 96 57 94 51 89 46
      C 84 41 78 38 68 38
      L 44 38 Z 
      M 54 46
      L 66 46
      C 73 46 77 48 80 51
      C 83 54 85 59 85 64
      C 85 69 83 74 80 77
      C 77 80 73 82 66 82
      L 54 82
      L 54 46 Z"/>
  </g>
</svg>
