<svg version="1.1" xmlns="http://www.w3.org/2000/svg" xmlns:xlink="http://www.w3.org/1999/xlink" width="512" height="512" viewBox="0,0,256,256"><g fill="#2a2c2d" fill-rule="nonzero" stroke="none" stroke-width="1" stroke-linecap="butt" stroke-linejoin="miter" stroke-miterlimit="10" stroke-dasharray="" stroke-dashoffset="0" font-family="none" font-weight="none" font-size="none" text-anchor="none" style="mix-blend-mode: normal"><g transform="translate(-5.33473,-5.33194) scale(10.66667,10.66667)"><path d="M17.854,7.146c-0.0938,-0.09404 -0.22117,-0.14689 -0.354,-0.14689c-0.13283,0 -0.2602,0.05285 -0.354,0.14689l-4.646,4.647l-4.646,-4.647c-0.19551,-0.19551 -0.51249,-0.19551 -0.708,0c-0.19551,0.19551 -0.19551,0.51249 0,0.708l4.647,4.646l-4.647,4.646c-0.19551,0.19551 -0.19551,0.51249 0,0.708c0.19551,0.19551 0.51249,0.19551 0.708,0l4.646,-4.647l4.646,4.647c0.19551,0.19551 0.51249,0.19551 0.708,0c0.19551,-0.19551 0.19551,-0.51249 0,-0.708l-4.647,-4.646l4.647,-4.646c0.09404,-0.0938 0.14689,-0.22117 0.14689,-0.354c0,-0.13283 -0.05285,-0.2602 -0.14689,-0.354z"></path></g></g></svg>